<svg id="svg" xmlns="http://www.w3.org/2000/svg" viewBox="0 -0.5 100 100" shape-rendering="crispEdges">
<rect id="background" width="100" height="100" fill="#ffffff" stroke-opacity="0" fill-opacity="0" pointer-events = "none" />
<metadata>Made with Pixels to Svg https://codepen.io/shshaw/pen/XbxvNj</metadata>
<path id="outline" stroke="#ffffff"  stroke-opacity="0" fill-opacity="0" d="M41 2h17M37 3h5M57 3h5M35 4h3M61 4h3M33 5h3M63 5h3M31 6h3M65 6h3M29 7h3M67 7h3M28 8h2M69 8h2M26 9h3M70 9h2M25 10h2M72 10h2M24 11h2M73 11h2M23 12h2M74 12h2M22 13h2M75 13h2M21 14h2M76 14h2M20 15h2M77 15h2M19 16h2M78 16h2M19 17h1M79 17h1M18 18h2M79 18h2M18 19h1M80 19h1M18 20h1M80 20h1M17 21h2M80 21h2M17 22h1M81 22h1M17 23h1M81 23h1M16 24h2M81 24h2M16 25h1M82 25h1M16 26h1M82 26h1M16 27h1M82 27h1M16 28h1M82 28h1M16 29h1M82 29h1M16 30h1M82 30h1M16 31h1M82 31h1M16 32h1M82 32h1M16 33h1M82 33h1M16 34h2M81 34h2M17 35h1M81 35h1M17 36h1M81 36h1M17 37h1M81 37h1M17 38h2M80 38h2M18 39h1M80 39h1M18 40h2M79 40h2M19 41h1M79 41h1M19 42h2M78 42h2M20 43h1M78 43h1M20 44h1M78 44h1M20 45h1M78 45h1M20 46h1M78 46h1M20 47h1M78 47h1M20 48h1M78 48h1M20 49h1M78 49h1M19 50h2M78 50h2M18 51h2M79 51h2M17 52h2M80 52h2M16 53h2M81 53h2M16 54h1M82 54h1M15 55h2M82 55h2M15 56h1M83 56h1M14 57h2M83 57h2M14 58h1M84 58h1M14 59h1M84 59h1M14 60h1M84 60h1M14 61h1M84 61h1M14 62h1M84 62h1M14 63h2M83 63h2M15 64h1M83 64h1M15 65h2M82 65h2M16 66h1M82 66h1M16 67h2M81 67h2M17 68h3M79 68h3M19 69h2M78 69h2M20 70h3M76 70h3M22 71h2M75 71h2M23 72h3M73 72h3M25 73h2M72 73h2M26 74h1M72 74h1M26 75h2M71 75h2M27 76h1M71 76h1M27 77h1M71 77h1M27 78h1M71 78h1M27 79h2M70 79h2M28 80h1M70 80h1M28 81h1M70 81h1M28 82h1M70 82h1M28 83h1M70 83h1M28 84h1M70 84h1M28 85h1M70 85h1M28 86h1M70 86h1M28 87h1M70 87h1M28 88h1M70 88h1M28 89h1M70 89h1M28 90h2M69 90h2M29 91h1M69 91h1M29 92h2M68 92h2M30 93h2M67 93h2M31 94h2M66 94h2M32 95h3M64 95h3M34 96h4M61 96h4M37 97h25" />
<path id="base" stroke="#000000" d="M42 3h15M38 4h23M36 5h7M56 5h7M34 6h5M43 6h13M60 6h5M32 7h5M39 7h21M62 7h5M30 8h6M37 8h25M63 8h6M29 9h6M36 9h3M42 9h15M60 9h3M64 9h6M27 10h7M35 10h3M39 10h3M43 10h6M50 10h6M57 10h3M61 10h3M65 10h7M26 11h8M35 11h2M38 11h4M43 11h6M50 11h6M57 11h4M62 11h2M65 11h8M25 12h9M35 12h6M42 12h4M47 12h1M51 12h1M53 12h4M58 12h6M65 12h9M24 13h11M36 13h3M41 13h7M51 13h7M60 13h3M64 13h11M23 14h3M27 14h9M39 14h6M46 14h1M52 14h1M54 14h6M63 14h9M73 14h3M22 15h3M28 15h19M52 15h19M74 15h3M21 16h4M28 16h16M45 16h2M52 16h2M55 16h16M74 16h4M20 17h6M27 17h10M38 17h6M45 17h1M53 17h1M55 17h6M62 17h10M73 17h6M20 18h8M31 18h4M36 18h3M40 18h3M44 18h2M53 18h2M56 18h3M60 18h3M64 18h4M71 18h8M19 19h4M26 19h1M28 19h3M32 19h11M44 19h2M53 19h2M56 19h11M68 19h3M72 19h1M76 19h4M19 20h3M23 20h3M27 20h2M30 20h1M32 20h2M35 20h5M41 20h2M44 20h2M53 20h2M56 20h2M59 20h5M65 20h2M68 20h1M70 20h2M73 20h3M77 20h3M19 21h3M23 21h1M25 21h1M27 21h3M31 21h13M45 21h1M53 21h1M55 21h13M69 21h3M73 21h1M75 21h1M77 21h3M18 22h5M24 22h2M27 22h8M36 22h3M40 22h4M45 22h1M53 22h1M55 22h4M60 22h3M64 22h8M73 22h2M76 22h5M18 23h9M29 23h8M38 23h7M54 23h7M62 23h8M72 23h9M18 24h11M31 24h14M54 24h14M70 24h11M17 25h14M42 25h5M52 25h5M68 25h14M17 26h4M24 26h5M31 26h11M44 26h3M52 26h3M57 26h11M70 26h5M78 26h4M17 27h3M21 27h3M25 27h3M29 27h15M45 27h3M51 27h3M55 27h15M71 27h3M75 27h3M79 27h3M17 28h2M20 28h2M23 28h1M25 28h2M28 28h17M46 28h2M51 28h2M54 28h17M72 28h2M75 28h1M77 28h2M80 28h2M17 29h2M20 29h1M24 29h2M27 29h5M37 29h8M46 29h3M50 29h3M54 29h8M67 29h5M73 29h2M78 29h1M80 29h2M17 30h2M20 30h2M23 30h2M26 30h4M39 30h7M47 30h2M50 30h2M53 30h7M69 30h4M74 30h2M77 30h2M80 30h2M17 31h3M21 31h3M25 31h3M41 31h5M47 31h5M53 31h5M71 31h3M75 31h3M79 31h3M17 32h4M24 32h3M42 32h4M47 32h5M53 32h4M72 32h3M78 32h4M17 33h9M42 33h5M48 33h3M52 33h5M73 33h9M18 34h3M22 34h4M43 34h4M48 34h3M52 34h4M73 34h4M78 34h3M18 35h2M23 35h2M43 35h4M48 35h1M50 35h1M52 35h4M74 35h2M79 35h2M18 36h3M22 36h3M44 36h3M48 36h3M52 36h3M74 36h3M78 36h3M18 37h6M44 37h3M48 37h1M50 37h1M52 37h3M75 37h6M19 38h3M23 38h1M44 38h3M48 38h3M52 38h3M75 38h1M77 38h3M19 39h5M44 39h5M50 39h5M75 39h5M20 40h4M43 40h3M47 40h5M53 40h3M75 40h4M20 41h4M43 41h5M51 41h5M75 41h4M21 42h4M43 42h3M47 42h5M53 42h3M74 42h4M21 43h4M42 43h6M51 43h6M74 43h4M21 44h5M42 44h15M73 44h5M21 45h5M41 45h5M47 45h1M51 45h1M53 45h5M73 45h5M21 46h6M40 46h6M47 46h5M53 46h6M72 46h6M21 47h3M25 47h4M38 47h7M46 47h3M50 47h3M54 47h7M70 47h4M75 47h3M21 48h2M26 48h5M36 48h9M46 48h7M54 48h9M68 48h5M76 48h2M21 49h3M25 49h19M45 49h3M51 49h3M55 49h19M75 49h3M21 50h3M25 50h19M45 50h2M52 50h2M55 50h19M75 50h3M20 51h4M25 51h18M44 51h2M53 51h2M56 51h18M75 51h4M19 52h23M43 52h2M54 52h2M57 52h23M18 53h23M42 53h2M55 53h2M58 53h23M17 54h7M25 54h14M40 54h3M56 54h3M60 54h14M75 54h7M17 55h5M23 55h14M38 55h4M57 55h4M62 55h14M77 55h5M16 56h4M21 56h4M26 56h15M58 56h15M74 56h4M79 56h4M16 57h6M24 57h2M27 57h13M59 57h13M73 57h2M77 57h6M15 58h4M20 58h1M25 58h1M27 58h1M29 58h10M60 58h10M71 58h1M73 58h1M78 58h1M80 58h4M15 59h6M25 59h1M27 59h1M29 59h1M31 59h6M62 59h6M69 59h1M71 59h1M73 59h1M78 59h6M15 60h7M24 60h2M27 60h9M63 60h9M73 60h2M77 60h7M15 61h10M26 61h10M63 61h10M74 61h10M15 62h4M20 62h1M22 62h11M34 62h2M63 62h2M66 62h11M78 62h1M80 62h4M16 63h4M21 63h2M24 63h7M32 63h2M35 63h1M49 63h1M63 63h1M65 63h2M68 63h7M76 63h2M79 63h4M16 64h5M23 64h2M26 64h1M28 64h1M30 64h2M34 64h3M48 64h3M62 64h3M67 64h2M70 64h1M72 64h1M74 64h2M78 64h5M17 65h6M25 65h5M32 65h7M45 65h9M60 65h7M69 65h5M76 65h6M17 66h8M30 66h5M36 66h10M47 66h5M53 66h10M64 66h5M74 66h8M18 67h18M38 67h7M46 67h7M54 67h7M63 67h18M20 68h12M33 68h5M40 68h3M45 68h4M50 68h4M56 68h3M61 68h5M67 68h12M21 69h10M34 69h6M43 69h5M51 69h5M59 69h6M68 69h10M23 70h8M34 70h13M52 70h13M68 70h8M24 71h5M36 71h11M52 71h11M70 71h5M26 72h2M37 72h10M52 72h10M71 72h2M27 73h2M36 73h6M43 73h2M46 73h2M51 73h2M54 73h2M57 73h6M70 73h2M27 74h4M34 74h5M48 74h1M50 74h1M60 74h5M68 74h4M28 75h3M34 75h4M39 75h3M43 75h2M46 75h7M54 75h2M57 75h3M61 75h4M68 75h3M28 76h4M33 76h33M67 76h4M28 77h43M28 78h3M32 78h1M34 78h6M44 78h1M49 78h1M54 78h1M59 78h6M66 78h1M68 78h3M29 79h3M33 79h4M62 79h4M67 79h3M29 80h3M33 80h3M63 80h3M67 80h3M29 81h3M33 81h2M64 81h2M67 81h3M29 82h3M33 82h2M64 82h2M67 82h3M29 83h3M33 83h2M64 83h2M67 83h3M29 84h6M64 84h6M29 85h3M33 85h2M64 85h2M67 85h3M29 86h2M34 86h1M64 86h1M68 86h2M29 87h2M34 87h1M64 87h1M68 87h2M29 88h3M33 88h3M63 88h3M67 88h3M29 89h7M63 89h7M30 90h3M34 90h3M62 90h3M66 90h3M30 91h10M44 91h1M49 91h1M54 91h1M59 91h10M31 92h4M36 92h27M64 92h4M32 93h5M38 93h23M62 93h5M33 94h6M40 94h1M42 94h1M46 94h1M48 94h1M50 94h1M52 94h1M56 94h1M58 94h1M60 94h6M35 95h11M47 95h1M49 95h1M51 95h1M53 95h11M38 96h23" />
<path id="forehead" class="forehead" stroke="#fff9bd" d="M43 5h13M39 6h4M56 6h4M37 7h2M60 7h2M36 8h1M62 8h1M35 9h1M39 9h3M57 9h3M63 9h1M34 10h1M38 10h1M42 10h1M56 10h1M60 10h1M64 10h1M34 11h1M37 11h1M42 11h1M56 11h1M61 11h1M64 11h1M34 12h1M41 12h1M57 12h1M64 12h1M35 13h1M39 13h2M58 13h2M63 13h1M36 14h3M60 14h3" />
<path id="thirdEyeOuter" class="forehead thirdEye" stroke="#ebbd91" d="M49 10h1M49 11h1M46 12h1M48 12h3M52 12h1M48 13h1M50 13h1M45 14h1M47 14h2M50 14h2M53 14h1M47 15h1M51 15h1M44 16h1M47 16h1M51 16h1M54 16h1M44 17h1M46 17h1M52 17h1M54 17h1M43 18h1M46 18h1M52 18h1M55 18h1M43 19h1M46 19h1M52 19h1M55 19h1M43 20h1M46 20h1M52 20h1M55 20h1M44 21h1M46 21h1M52 21h1M54 21h1M44 22h1M46 22h1M52 22h1M54 22h1M45 23h2M52 23h2M45 24h3M51 24h3M47 25h1M51 25h1M47 26h2M50 26h2M48 27h1M50 27h1M48 28h3M49 29h1M49 30h1" />
<path id="thirdEyeInner" class="foreheadX thirdEye" stroke="#a8e61d" d="M49 13h1M49 14h1M48 15h3M48 16h3M47 17h5M47 18h5M47 19h5M47 20h5M47 21h5M47 22h5M47 23h5M48 24h3M48 25h3M49 26h1M49 27h1" />
<path id="thirdEyeTopDotLeft" class="forehead thirdEye thirdEyeX top dot left" stroke="#ebbd91" d="M46 12h1" />
<path id="thirdEyeTopDotRight" class="forehead thirdEye thirdEyeX top dot right" stroke="#ebbd91" d="M52 12h1" />
<path id="thirdEyeDotLeft" class="forehead thirdEye thirdEyeX second dot left" stroke="#ebbd91" d="M45 14h1" />
<path id="thirdEyeDotRight" class="forehead thirdEye thirdEyeX second dot right" stroke="#ebbd91" d="M53 14h1" />
<path id="foreheadCrossLeft" class="forehead cross left" stroke="#9e7810" d="M26 14h1M25 15h3M25 16h3M26 17h1" />
<path id="foreheadCrossRight" class="forehead cross right" stroke="#f2d791" d="M72 14h1M71 15h3M71 16h3M72 17h1" />
<path id="topBulletsLeft" class="forehead bullet top left" stroke="#97a1c9" d="M37 17h1M35 18h1M39 18h1" />
<path id="topBulletsRight" class="forehead bullet top right" stroke="#353e61" d="M61 17h1M59 18h1M63 18h1" />
<path id="middleBulletsLeft" class="forehead bullet middle left" stroke="#00b7ef" d="M34 20h1M40 20h1" />
<path id="middleBulletsRight" class="forehead bullet middle right" stroke="#034559" d="M58 20h1M64 20h1" />
<path id="lowerBulletsLeft" class="forehead bullet lower left" stroke="#a39905" d="M35 22h1M39 22h1" />
<path id="lowerBulletsRight" class="forehead bullet lower right" stroke="#fff678" d="M59 22h1M63 22h1" />
<path id="bottomBulletLeft" class="forehead bullet bottom left" stroke="#c081eb" d="M37 23h1" />
<path id="bottomBulletRight" class="forehead bullet bottom right" stroke="#453154" d="M61 23h1" />
<path id="templeDecorLeft" class="temple decor left" stroke="#745d85" d="M28 18h3M23 19h3M27 19h1M31 19h1M22 20h1M26 20h1M29 20h1M31 20h1M22 21h1M24 21h1M26 21h1M30 21h1M23 22h1M26 22h1M27 23h2M29 24h2M21 26h3M29 26h2M20 27h1M24 27h1M28 27h1M19 28h1M24 28h1M27 28h1M19 29h1M26 29h1M19 30h1M25 30h1M20 31h1M24 31h1M21 32h3" />
<path id="templeDecorRight" class="temple decor right" stroke="#db7689" d="M68 18h3M67 19h1M71 19h1M73 19h3M67 20h1M69 20h1M72 20h1M76 20h1M68 21h1M72 21h1M74 21h1M76 21h1M72 22h1M75 22h1M70 23h2M68 24h2M68 26h2M75 26h3M70 27h1M74 27h1M78 27h1M71 28h1M74 28h1M79 28h1M72 29h1M79 29h1M73 30h1M79 30h1M74 31h1M78 31h1M75 32h3" />
<path id="templeFlowerUpperLeft" class="temple flower upper left" stroke="#a35812" d="M22 28h1M21 29h1M23 29h1M22 30h1" />
<path id="templeFlowerUpperRight" class="temple flower upper right" stroke="#eba567" d="M76 28h1M75 29h1M77 29h1M76 30h1" />
<path id="templeFlowerUpperDotsLeft" class="templeX flower dot left upper" stroke="#344175" d="M22 29h1M21 35h1" />
<path id="templeFlowerUpperDotsRight" class="templeX flower dot right upper" stroke="#8990ab" d="M76 29h1M77 35h1" />
<path id="templeFlowerLowerDotsLeft" class="templeX flower dot left lower" stroke="#344175" d="M22 29h1M21 35h1" />
<path id="templeFlowerLowerDotsRight" class="templeX flower dot right lower" stroke="#8990ab" d="M76 29h1M77 35h1" />
<path id="templeFlowerLowerLeft" class="temple flower lower left" stroke="#f07d18" d="M21 34h1M20 35h1M22 35h1M21 36h1M22 38h1" />
<path id="templeFlowerLowerRight" class="temple flower lower right" stroke="#61310a" d="M77 34h1M76 35h1M78 35h1M77 36h1M76 38h1" />
<path id="templeDotLowerLeft" class="temple lower dot left " stroke="#5b6eb5" d="M22 38h1" />
<path id="templeDotLowerRight" class="temple lower dot right" stroke="#2e4599" d="M76 38h1" />
<path id="overEyeDecorLeft" class="eye decor upper left" stroke="#b5a5d5" d="M31 25h11M42 26h2M44 27h1M45 28h1M45 29h1M46 30h1M46 31h1M46 32h1M47 33h1M47 34h1M47 35h1M47 36h1M47 37h1M47 38h1" />
<path id="overEyeDecorRight" class="eye decor upper right" stroke="#8f3f4d" d="M57 25h11M55 26h2M54 27h1M53 28h1M53 29h1M52 30h1M52 31h1M52 32h1M51 33h1M51 34h1M51 35h1M51 36h1M51 37h1M51 38h1" />
<path id="pupilLeft" class="eyeX pupil left" stroke="#ed1c24" d="M33 32h3M30 33h4M35 33h4M30 34h1M32 34h5M38 34h1M28 35h13M28 36h1M30 36h9M40 36h1M28 37h13M27 38h15M27 39h1M29 39h11M41 39h1M27 40h15M28 41h13M28 42h1M30 42h9M40 42h1M28 43h13M30 44h1M32 44h5M38 44h1M30 45h4M35 45h4M33 46h3" />
<path id="pupilRight" class="eyeX pupil right" stroke="#80050b" d="M63 32h3M60 33h4M65 33h4M60 34h1M62 34h5M68 34h1M58 35h13M58 36h1M60 36h9M70 36h1M58 37h13M57 38h15M57 39h1M59 39h11M71 39h1M57 40h15M58 41h13M58 42h1M60 42h9M70 42h1M58 43h13M60 44h1M62 44h5M68 44h1M60 45h4M65 45h4M63 46h3" />
<path id="pupilAccentLeft" class="eye pupil accent left" stroke="#990030" d="M34 33h1M31 34h1M37 34h1M29 36h1M39 36h1M28 39h1M40 39h1M29 42h1M39 42h1M31 44h1M37 44h1M34 45h1" />
<path id="pupilAccentRight" class="eye pupil accent right" stroke="#f5c6f5" d="M64 33h1M61 34h1M67 34h1M59 36h1M69 36h1M58 39h1M70 39h1M59 42h1M69 42h1M61 44h1M67 44h1M64 45h1" />
<path id="eyeLeft" class="eye outer left" stroke="#ffa3b1" d="M32 29h5M30 30h4M35 30h4M28 31h3M32 31h5M38 31h3M27 32h6M36 32h6M26 33h2M29 33h1M39 33h1M41 33h1M26 34h4M39 34h4M25 35h3M41 35h2M25 36h1M27 36h1M41 36h3M24 37h4M41 37h3M24 38h3M42 38h2M24 39h1M26 39h1M42 39h2M24 40h3M42 40h1M24 41h4M41 41h2M25 42h1M27 42h1M41 42h2M25 43h3M41 43h1M26 44h4M39 44h3M26 45h2M29 45h1M39 45h2M27 46h6M36 46h4M29 47h9M31 48h5" />
<path id="eyeRight" class="eye outer right" stroke="#380104" d="M62 29h5M60 30h4M65 30h4M58 31h3M62 31h5M68 31h3M57 32h6M66 32h6M57 33h1M59 33h1M69 33h1M71 33h2M56 34h4M69 34h4M56 35h2M71 35h3M55 36h3M71 36h1M73 36h1M55 37h3M71 37h4M55 38h2M72 38h3M55 39h2M72 39h1M74 39h1M56 40h1M72 40h3M56 41h2M71 41h4M56 42h2M71 42h1M73 42h1M57 43h1M71 43h3M57 44h3M69 44h4M58 45h2M69 45h1M71 45h2M59 46h4M66 46h6M61 47h9M63 48h5" />
<path id="eyeAccentLeft" class="eyeX outer accent left" stroke="#f59740" d="M34 30h1M31 31h1M37 31h1M28 33h1M40 33h1M26 36h1M25 39h1M26 42h1M28 45h1" />
<path id="eyeAccentRight" class="eyeX outer accent right" stroke="#5e320b" d="M64 30h1M61 31h1M67 31h1M58 33h1M70 33h1M72 36h1M73 39h1M72 42h1M70 45h1" />
<path id="bridge" class="bridge" stroke="#8f000a" d="M48 41h3M48 43h3M48 45h3" />
<path id="bridgeUpperDot" class="bridge dot upper" stroke="#ceedf5" d="M49 35h1M49 37h1M49 39h1" />
<path id="bridgeSideDotLeft" class="bridge dot side left" stroke="#dff0bb" d="M46 40h1M46 42h1" />
<path id="bridgeSideDotRight" class="bridge dot side right" stroke="#00ff00" d="M52 40h1M52 42h1" />
<path id="bridgeLowerDot" class="bridge dot lower" stroke="#b8c5e0" d="M49 47h1" />
<path id="noseOutline" class="nose outline" stroke="#4d6df3" d="M48 49h3M47 50h5M46 51h2M49 51h1M51 51h2M45 52h2M49 52h1M52 52h2M44 53h2M48 53h1M50 53h1M53 53h2M43 54h2M48 54h1M50 54h1M54 54h2M42 55h2M47 55h1M51 55h1M55 55h2M41 56h2M47 56h1M51 56h1M56 56h2M40 57h3M48 57h1M50 57h1M56 57h3M39 58h2M42 58h1M48 58h1M50 58h1M56 58h1M58 58h2M37 59h3M42 59h1M49 59h1M56 59h1M59 59h3M36 60h2M39 60h1M42 60h2M49 60h1M55 60h2M59 60h1M61 60h2M36 61h1M39 61h2M43 61h2M49 61h1M54 61h2M58 61h2M62 61h1M36 62h1M40 62h1M44 62h2M48 62h3M53 62h2M58 62h1M62 62h1M36 63h2M39 63h2M45 63h1M47 63h2M50 63h2M53 63h1M58 63h2M61 63h2M37 64h3M44 64h4M51 64h4M59 64h3M39 65h6M54 65h6" />
<path id="nose1Left" class="noseX one left" stroke="#ab6c80" d="M48 51h1M47 52h2M46 53h2M45 54h3M44 55h3M43 56h4M43 57h5M43 58h5M43 59h6M44 60h5M45 61h4M46 62h2M46 63h1" />
<path id="nose1Right" class="noseX one right" stroke="#c1db84" d="M50 51h1M50 52h2M51 53h2M51 54h3M52 55h3M52 56h4M51 57h5M51 58h5M50 59h6M50 60h5M50 61h4M51 62h2M52 63h1" />
<path id="nose2Left" class="noseX two left" stroke="#8a4b11" d="M41 58h1M40 59h2M40 60h2M41 61h2M41 62h3M41 63h4M40 64h4" />
<path id="nose2Right" class="noseX two right" stroke="#273307" d="M57 58h1M57 59h2M57 60h2M56 61h2M55 62h3M54 63h4M55 64h4" />
<path id="nose3Left" class="noseX three left" stroke="#99d9ea" d="M38 60h1M37 61h2M37 62h3M38 63h1" />
<path id="nose3Right" class="noseX three right" stroke="#7aa308" d="M60 60h1M60 61h2M59 62h3M60 63h1" />
<path id="noseCross" class="noseX cross" stroke="#050940" d="M49 53h1M49 54h1M48 55h3M48 56h3M49 57h1M49 58h1" />
<path id="underEyeDecorLeft" class="eye decor lower left" stroke="#87c404" d="M46 45h1M46 46h1M45 47h1M45 48h1M44 49h1M44 50h1M43 51h1M42 52h1M41 53h1M39 54h1M37 55h1" />
<path id="underEyeDecorRight" class="eye decor lower right" stroke="#3b4524" d="M52 45h1M52 46h1M53 47h1M53 48h1M54 49h1M54 50h1M55 51h1M56 52h1M57 53h1M59 54h1M61 55h1" />
<path id="cheekCrossLeft" class="cheek cross left" stroke="#fff200" d="M24 47h1M23 48h3M24 49h1M24 50h1M24 51h1" />
<path id="cheekCrossRight" class="cheek cross right" stroke="#4f6e08" d="M74 47h1M73 48h3M74 49h1M74 50h1M74 51h1" />
<path id="line1CheekLeft" class="cheek line one left" stroke="#d68595" d="M24 54h1M22 55h1M20 56h1M19 58h1" />
<path id="line1CheekRight" class="cheek line one right" stroke="#3d121a" d="M74 54h1M76 55h1M78 56h1M79 58h1" />
<path id="line2CheekLeft" class="cheek line two left" stroke="#ad6f34" d="M25 56h1M26 57h1M26 58h1M26 59h1M26 60h1M25 61h1" />
<path id="line2CheekRight" class="cheek line two right" stroke="#854810" d="M73 56h1M72 57h1M72 58h1M72 59h1M72 60h1M73 61h1" />
<path id="line3CheekLeft" class="cheek line three left" stroke="#f0ebb4" d="M28 58h1M28 59h1M30 59h1" />
<path id="line3CheekRight" class="cheek line three right" stroke="#a6a27e" d="M70 58h1M68 59h1M70 59h1" />
<path id="line4CheekLeft" class="cheek line four left" stroke="#8f860e" d="M21 62h1M33 62h1M23 63h1M31 63h1M25 64h1M27 64h1M29 64h1" />
<path id="line4CheekRight" class="cheek line four right" stroke="#f0e675" d="M65 62h1M77 62h1M67 63h1M75 63h1M69 64h1M71 64h1M73 64h1" />
<path id="line5CheekLeft" class="cheek line five left" stroke="#ad727c" d="M19 62h1M20 63h1M34 63h1M21 64h2M32 64h2M23 65h2M30 65h2M25 66h5" />
<path id="line5CheekRight" class="cheek line five right" stroke="#871e31" d="M79 62h1M64 63h1M78 63h1M65 64h2M76 64h2M67 65h2M74 65h2M69 66h5" />
<path id="cheekFlowerLeft" class="cheek flower left" stroke="#6f3198" d="M22 57h2M21 58h1M24 58h1M21 59h1M24 59h1M22 60h2" />
<path id="cheekFlowerRight" class="cheek flower right" stroke="#9a6eb8" d="M75 57h2M74 58h1M77 58h1M74 59h1M77 59h1M75 60h2" />
<path id="dimpleLeft" class="cheekX dimple left" stroke="#b4b4b4" d="M22 58h2M22 59h2" />
<path id="dimpleRight" class="cheekX dimple right" stroke="#758a43" d="M75 58h2M75 59h2" />
<path id="underNoseLeft" class="nose under left" stroke="#607d1e" d="M35 66h1M46 66h1M36 67h2M45 67h1M38 68h2M43 68h2M40 69h3" />
<path id="underNoseRight" class="nose under right" stroke="#594c29" d="M52 66h1M63 66h1M53 67h1M61 67h2M54 68h2M59 68h2M56 69h3" />
<path id="mustache" class="mustache" stroke="#ff7e00" d="M42 73h1M45 73h1M53 73h1M56 73h1M39 74h3M43 74h2M46 74h2M51 74h2M54 74h2M57 74h3M38 75h1M42 75h1M45 75h1M53 75h1M56 75h1M60 75h1" />
<path id="philtrum" class="mustache philtrum" stroke="#f5c293" d="M49 68h1M48 69h1M50 69h1M47 70h1M51 70h1M47 71h1M51 71h1M47 72h1M51 72h1M48 73h1M50 73h1M49 74h1" />
<path id="philtrumGem" class="mustacheX philtrum gem" stroke="#e8ac92" d="M49 69h1M48 70h3M48 71h3M48 72h3M49 73h1" />
<path id="mustacheDots" class="mustacheX dots" stroke="#c29311" d="M42 74h1M45 74h1M53 74h1M56 74h1" />
<path id="chinFlowerOuterLeft" class="chin flower outer left" stroke="#2f3699" d="M32 68h1M31 69h1M33 69h1M31 70h1M33 70h1M29 71h2M34 71h2M28 72h1M36 72h1M29 73h2M34 73h2M31 74h1M33 74h1M31 75h1M33 75h1M32 76h1" />
<path id="chinFlowerOuterRight" class="chin flower outer right" stroke="#2e3059" d="M66 68h1M65 69h1M67 69h1M65 70h1M67 70h1M63 71h2M68 71h2M62 72h1M70 72h1M63 73h2M68 73h2M65 74h1M67 74h1M65 75h1M67 75h1M66 76h1" />
<path id="chinFlowerInnerLeft" class="chinX flower inner left" stroke="#464646" d="M32 69h1M32 70h1M31 71h3M29 72h3M33 72h3M31 73h3M32 74h1M32 75h1" />
<path id="chinFlowerInnerRight" class="chinX flower inner right" stroke="#5c2f5c" d="M66 69h1M66 70h1M65 71h3M63 72h3M67 72h3M65 73h3M66 74h1M66 75h1" />
<path id="chinFlowerDotLeft" class="chin flower dot left" stroke="#826046" d="M32 72h1" />
<path id="chinFlowerDotRight" class="chin flower dot right" stroke="#3d1d04" d="M66 72h1" />
<path id="chinMiddleLeft" class="chin middle left" stroke="#5fabc7" d="M31 78h1M33 78h1M32 79h1M32 80h1M32 81h1M32 82h1M32 83h1" />
<path id="chinMiddleRight" class="chin middle right" stroke="#10536b" d="M65 78h1M67 78h1M66 79h1M66 80h1M66 81h1M66 82h1M66 83h1" />
<path id="mouthOutline" class="mouth" stroke="#e5aa7a" d="M40 78h4M45 78h4M50 78h4M55 78h4M37 79h3M44 79h1M49 79h1M54 79h1M59 79h3M36 80h1M62 80h1M35 81h1M63 81h1M35 82h1M63 82h1M35 83h1M63 83h1M35 84h1M63 84h1M35 85h1M63 85h1M35 86h1M63 86h1M35 87h1M63 87h1M36 88h1M62 88h1M36 89h1M62 89h1M37 90h3M44 90h1M49 90h1M54 90h1M59 90h3M40 91h4M45 91h4M50 91h4M55 91h4" />
<path id="teethOutline" class="mouthX" stroke="#d3f9bc" d="M40 79h4M45 79h4M50 79h4M55 79h4M37 80h4M43 80h3M48 80h3M53 80h3M58 80h4M36 81h2M39 81h1M44 81h1M49 81h1M54 81h1M59 81h1M61 81h2M36 82h1M39 82h1M44 82h1M49 82h1M54 82h1M59 82h1M62 82h1M36 83h2M39 83h1M44 83h1M49 83h1M54 83h1M59 83h1M61 83h2M36 84h4M44 84h1M49 84h1M54 84h1M59 84h4M36 85h1M38 85h23M62 85h1M36 86h1M39 86h1M44 86h1M49 86h1M54 86h1M59 86h1M62 86h1M36 87h2M39 87h1M44 87h1M49 87h1M54 87h1M59 87h1M61 87h2M37 88h1M39 88h1M44 88h1M49 88h1M54 88h1M59 88h1M61 88h1M37 89h4M43 89h3M48 89h3M53 89h3M58 89h4M40 90h4M45 90h4M50 90h4M55 90h4" />
<path id="tooth1" class="mouth teeth upper far right" stroke="#ffc933" d="M41 80h2M40 81h4M40 82h4M40 83h4M40 84h4" />
<path id="tooth2" class="mouth teeth upper right" stroke="#ffc20e" d="M46 80h2M45 81h4M45 82h4M45 83h4M45 84h4" />
<path id="tooth3" class="mouth teeth upper left" stroke="#fcd76f" d="M51 80h2M50 81h4M50 82h4M50 83h4M50 84h4" />
<path id="tooth4" class="mouth teeth upper far left" stroke="#fce8b1" d="M56 80h2M55 81h4M55 82h4M55 83h4M55 84h4" />
<path id="tooth5" class="mouth teeth lower far right" stroke="#8a7742" d="M40 86h4M40 87h4M40 88h4M41 89h2" />
<path id="tooth6" class="mouth teeth lower right" stroke="#856d2d" d="M45 86h4M45 87h4M45 88h4M46 89h2" />
<path id="tooth7" class="mouth teeth lower left" stroke="#664d0c" d="M50 86h4M50 87h4M50 88h4M51 89h2" />
<path id="tooth8" class="mouth teeth lower far left" stroke="#2e2306" d="M55 86h4M55 87h4M55 88h4M56 89h2" />
<path id="smallteethLeft" class="mouth teeth small left" stroke="#9c5a3c" d="M38 81h1M37 82h2M38 83h1M37 85h1M37 86h2M38 87h1M38 88h1" />
<path id="smallteethRight" class="mouth teeth small right" stroke="#5e4033" d="M60 81h1M60 82h2M60 83h1M61 85h1M60 86h2M60 87h1M60 88h1" />
<path id="lowerChinLeft" class="chin lower left" stroke="#c2e2ed" d="M32 85h1M31 86h1M33 86h1M31 87h1M33 87h1M32 88h1M33 90h1M35 92h1M37 93h1M39 94h1M41 94h1" />
<path id="lowerChinMiddle" class="chin lower middle" stroke="#42056b" d="M43 94h3M47 94h1M49 94h1M51 94h1M53 94h3M46 95h1M48 95h1M50 95h1M52 95h1" /> 
<path id="lowerChinRight" class="chin lower right" stroke="#15204a" d="M66 85h1M65 86h1M67 86h1M65 87h1M67 87h1M66 88h1M65 90h1M63 92h1M61 93h1M57 94h1M59 94h1" />
<path id="lowerChinDotLeft" class="chinX dot left" stroke="#590359" d="M32 86h1M32 87h1" />
<path id="lowerChinDotRight" class="chinX dot right" stroke="#b37db3" d="M66 86h1M66 87h1" />
</svg>